# Blender 3.6.4
# www.blender.org
mtllib bullet.mtl
o Cylinder
v 1.072137 0.000000 0.003164
v -0.800000 -0.000000 0.250000
v 1.072137 -0.000617 0.003103
v -0.800000 -0.048773 0.245196
v 1.072137 -0.001211 0.002923
v -0.800000 -0.095671 0.230970
v 1.072137 -0.001758 0.002631
v -0.800000 -0.138893 0.207867
v 1.072137 -0.002237 0.002237
v -0.800000 -0.176777 0.176777
v 1.072137 -0.002631 0.001758
v -0.800000 -0.207867 0.138893
v 1.072137 -0.002923 0.001211
v -0.800000 -0.230970 0.095671
v 1.072137 -0.003103 0.000617
v -0.800000 -0.245196 0.048773
v 1.072137 -0.003164 0.000000
v -0.800000 -0.250000 0.000000
v 1.072137 -0.003103 -0.000617
v -0.800000 -0.245196 -0.048773
v 1.072137 -0.002923 -0.001211
v -0.800000 -0.230970 -0.095671
v 1.072137 -0.002631 -0.001758
v -0.800000 -0.207867 -0.138893
v 1.072137 -0.002237 -0.002237
v -0.800000 -0.176777 -0.176777
v 1.072137 -0.001758 -0.002631
v -0.800000 -0.138893 -0.207867
v 1.072137 -0.001211 -0.002923
v -0.800000 -0.095671 -0.230970
v 1.072137 -0.000617 -0.003103
v -0.800000 -0.048773 -0.245196
v 1.072137 0.000000 -0.003164
v -0.800000 -0.000000 -0.250000
v 1.072137 0.000617 -0.003103
v -0.800000 0.048773 -0.245196
v 1.072137 0.001211 -0.002923
v -0.800000 0.095671 -0.230970
v 1.072137 0.001758 -0.002631
v -0.800000 0.138893 -0.207867
v 1.072137 0.002237 -0.002237
v -0.800000 0.176777 -0.176777
v 1.072137 0.002631 -0.001758
v -0.800000 0.207867 -0.138893
v 1.072137 0.002923 -0.001211
v -0.800000 0.230970 -0.095671
v 1.072137 0.003103 -0.000617
v -0.800000 0.245196 -0.048773
v 1.072137 0.003164 0.000000
v -0.800000 0.250000 0.000000
v 1.072137 0.003103 0.000617
v -0.800000 0.245196 0.048773
v 1.072137 0.002923 0.001211
v -0.800000 0.230970 0.095671
v 1.072137 0.002631 0.001758
v -0.800000 0.207867 0.138893
v 1.072137 0.002237 0.002237
v -0.800000 0.176777 0.176777
v 1.072137 0.001758 0.002631
v -0.800000 0.138893 0.207867
v 1.072137 0.001211 0.002923
v -0.800000 0.095671 0.230970
v 1.072137 0.000617 0.003103
v -0.800000 0.048773 0.245196
v 0.337757 0.000000 0.250000
v 0.337757 -0.048773 0.245196
v 0.337757 -0.095671 0.230970
v 0.337757 -0.138893 0.207867
v 0.337757 -0.176777 0.176777
v 0.337757 -0.207867 0.138893
v 0.337757 -0.230970 0.095671
v 0.337757 -0.245196 0.048773
v 0.337757 -0.250000 0.000000
v 0.337757 -0.245196 -0.048773
v 0.337757 -0.230970 -0.095671
v 0.337757 -0.207867 -0.138893
v 0.337757 -0.176777 -0.176777
v 0.337757 -0.138893 -0.207867
v 0.337757 -0.095671 -0.230970
v 0.337757 -0.048773 -0.245196
v 0.337757 0.000000 -0.250000
v 0.337757 0.048773 -0.245196
v 0.337757 0.095671 -0.230970
v 0.337757 0.138893 -0.207867
v 0.337757 0.176777 -0.176777
v 0.337757 0.207867 -0.138893
v 0.337757 0.230970 -0.095671
v 0.337757 0.245196 -0.048773
v 0.337757 0.250000 0.000000
v 0.337757 0.245196 0.048773
v 0.337757 0.230970 0.095671
v 0.337757 0.207867 0.138893
v 0.337757 0.176777 0.176777
v 0.337757 0.138893 0.207867
v 0.337757 0.095671 0.230970
v 0.337757 0.048773 0.245196
vn -0.0000 -0.0980 0.9952
vn -0.0000 -0.2903 0.9569
vn -0.0000 -0.4714 0.8819
vn -0.0000 -0.6344 0.7730
vn -0.0000 -0.7730 0.6344
vn -0.0000 -0.8819 0.4714
vn -0.0000 -0.9569 0.2903
vn -0.0000 -0.9952 0.0980
vn -0.0000 -0.9952 -0.0980
vn -0.0000 -0.9569 -0.2903
vn -0.0000 -0.8819 -0.4714
vn -0.0000 -0.7730 -0.6344
vn -0.0000 -0.6344 -0.7730
vn -0.0000 -0.4714 -0.8819
vn -0.0000 -0.2903 -0.9569
vn -0.0000 -0.0980 -0.9952
vn -0.0000 0.0980 -0.9952
vn -0.0000 0.2903 -0.9569
vn -0.0000 0.4714 -0.8819
vn -0.0000 0.6344 -0.7730
vn -0.0000 0.7730 -0.6344
vn -0.0000 0.8819 -0.4714
vn -0.0000 0.9569 -0.2903
vn -0.0000 0.9952 -0.0980
vn -0.0000 0.9952 0.0980
vn -0.0000 0.9569 0.2903
vn -0.0000 0.8819 0.4714
vn -0.0000 0.7730 0.6344
vn -0.0000 0.6344 0.7730
vn -0.0000 0.4714 0.8819
vn -1.0000 -0.0000 -0.0000
vn -0.0000 0.2903 0.9569
vn -0.0000 0.0980 0.9952
vn 0.3172 0.0929 0.9438
vn 0.3172 0.2753 0.9075
vn 0.3172 0.4471 0.8364
vn 0.3172 0.6016 0.7331
vn 0.3172 0.7331 0.6016
vn 0.3172 0.8364 0.4471
vn 0.3172 0.9075 0.2752
vn 0.3172 0.9438 0.0929
vn 0.3172 0.9438 -0.0929
vn 0.3172 0.9075 -0.2752
vn 0.3172 0.8364 -0.4471
vn 0.3172 0.7331 -0.6016
vn 0.3172 0.6016 -0.7331
vn 0.3172 0.4470 -0.8364
vn 0.3172 0.2753 -0.9075
vn 0.3172 0.0930 -0.9438
vn 0.3172 -0.0929 -0.9438
vn 0.3172 -0.2753 -0.9075
vn 0.3172 -0.4470 -0.8364
vn 0.3172 -0.6016 -0.7331
vn 0.3172 -0.7331 -0.6016
vn 0.3172 -0.8364 -0.4471
vn 0.3172 -0.9075 -0.2752
vn 0.3172 -0.9438 -0.0930
vn 0.3172 -0.9438 0.0930
vn 0.3172 -0.9075 0.2752
vn 0.3172 -0.8364 0.4471
vn 0.3172 -0.7331 0.6016
vn 0.3172 -0.6016 0.7331
vn 0.3172 -0.4471 0.8364
vn 0.3172 -0.2753 0.9075
vn 0.3172 -0.0930 0.9438
vn 0.3172 0.0930 0.9438
vn 0.3172 0.4470 0.8364
vn 0.3172 0.8364 0.4470
vn 0.3172 0.9075 0.2753
vn 0.3172 0.9438 0.0930
vn 0.3172 0.9438 -0.0930
vn 0.3172 0.9075 -0.2753
vn 0.3172 0.8364 -0.4470
vn 0.3172 -0.0930 -0.9438
vn 0.3172 -0.4471 -0.8364
vn 0.3172 -0.9075 -0.2753
vn 0.3172 -0.9075 0.2753
vn 0.3172 -0.4470 0.8364
vt 0.582629 0.016066
vt 0.555143 0.534811
vt 0.535768 0.530322
vt 0.606648 0.018863
vt 0.574622 0.539919
vt 0.630599 0.021801
vt 0.594122 0.545895
vt 0.678319 0.028042
vt 0.613755 0.552543
vt 0.633537 0.559892
vt 0.702102 0.031310
vt 0.653606 0.567798
vt 0.725844 0.034651
vt 0.673851 0.576482
vt 0.749554 0.038043
vt 0.694250 0.586147
vt 0.070400 0.586532
vt 0.023875 0.031649
vt 0.090978 0.576871
vt 0.111280 0.567806
vt 0.047877 0.028625
vt 0.131545 0.560072
vt 0.071900 0.025668
vt 0.151480 0.552538
vt 0.095949 0.022784
vt 0.171359 0.545922
vt 0.120018 0.020003
vt 0.191005 0.539770
vt 0.144116 0.017343
vt 0.210523 0.534268
vt 0.168248 0.014819
vt 0.229927 0.529391
vt 0.216635 0.010232
vt 0.249233 0.525116
vt 0.268455 0.521422
vt 0.240898 0.008194
vt 0.287609 0.518291
vt 0.265215 0.006339
vt 0.306738 0.515982
vt 0.289585 0.004678
vt 0.325833 0.514212
vt 0.314012 0.003217
vt 0.344902 0.513038
vt 0.338513 0.001969
vt 0.363939 0.512329
vt 0.387744 0.000104
vt 0.382977 0.512486
vt 0.402034 0.512822
vt 0.412391 0.001391
vt 0.421076 0.513680
vt 0.436942 0.002893
vt 0.440097 0.515406
vt 0.461412 0.004612
vt 0.459135 0.517320
vt 0.485806 0.006528
vt 0.478175 0.520117
vt 0.510124 0.008648
vt 0.497271 0.523121
vt 0.786125 0.059755
vt 0.940245 0.013003
vt 0.986997 0.167123
vt 0.534371 0.010948
vt 0.516483 0.526431
vt 0.413792 0.859055
vt 0.410607 0.858804
vt 0.407242 0.858688
vt 0.403872 0.858584
vt 0.400337 0.858631
vt 0.396684 0.858842
vt 0.392921 0.859230
vt 0.389097 0.859804
vt 0.385217 0.860570
vt 0.381317 0.859639
vt 0.377442 0.858905
vt 0.373692 0.858540
vt 0.369946 0.858187
vt 0.366287 0.858012
vt 0.362896 0.858148
vt 0.359691 0.858422
vt 0.356699 0.858814
vt 0.353949 0.859301
vt 0.351467 0.859860
vt 0.349282 0.860460
vt 0.347107 0.861074
vt 0.345585 0.861663
vt 0.344074 0.862266
vt 0.343347 0.862688
vt 0.343064 0.862953
vt 0.427610 0.862696
vt 0.427895 0.862953
vt 0.426509 0.862177
vt 0.425030 0.861602
vt 0.423541 0.861041
vt 0.421692 0.860458
vt 0.419510 0.859889
vt 0.416769 0.859424
vt 0.654487 0.024866
vt 0.773018 0.041436
vt 0.000104 0.034677
vt 0.192419 0.012444
vt 0.363090 0.000924
vt 0.798528 0.041192
vt 0.814314 0.025406
vt 0.832877 0.013003
vt 0.853503 0.004460
vt 0.875399 0.000104
vt 0.897724 0.000104
vt 0.919620 0.004460
vt 0.958808 0.025406
vt 0.995540 0.080381
vt 0.974594 0.041192
vt 0.986997 0.059755
vt 0.999896 0.102277
vt 0.999896 0.124601
vt 0.995540 0.146498
vt 0.974594 0.185686
vt 0.919620 0.222418
vt 0.958808 0.201472
vt 0.940245 0.213875
vt 0.897723 0.226774
vt 0.875399 0.226774
vt 0.853503 0.222418
vt 0.832877 0.213875
vt 0.814314 0.201472
vt 0.798528 0.185686
vt 0.786125 0.167123
vt 0.777582 0.146497
vt 0.773226 0.124601
vt 0.773226 0.102276
vt 0.777582 0.080380
vt 0.558539 0.013424
s 0
usemtl bullet_m
f 2/1/1 66/2/1 65/3/1
f 4/4/2 67/5/2 66/2/2
f 6/6/3 68/7/3 67/5/3
f 68/7/4 10/8/4 69/9/4
f 10/8/5 70/10/5 69/9/5
f 12/11/6 71/12/6 70/10/6
f 14/13/7 72/14/7 71/12/7
f 16/15/8 73/16/8 72/14/8
f 73/17/9 20/18/9 74/19/9
f 20/18/10 75/20/10 74/19/10
f 22/21/11 76/22/11 75/20/11
f 24/23/12 77/24/12 76/22/12
f 26/25/13 78/26/13 77/24/13
f 28/27/14 79/28/14 78/26/14
f 30/29/15 80/30/15 79/28/15
f 32/31/16 81/32/16 80/30/16
f 81/32/17 36/33/17 82/34/17
f 36/33/18 83/35/18 82/34/18
f 38/36/19 84/37/19 83/35/19
f 40/38/20 85/39/20 84/37/20
f 42/40/21 86/41/21 85/39/21
f 44/42/22 87/43/22 86/41/22
f 46/44/23 88/45/23 87/43/23
f 88/45/24 50/46/24 89/47/24
f 50/46/25 90/48/25 89/47/25
f 52/49/26 91/50/26 90/48/26
f 54/51/27 92/52/27 91/50/27
f 56/53/28 93/54/28 92/52/28
f 58/55/29 94/56/29 93/54/29
f 60/57/30 95/58/30 94/56/30
f 6/59/31 54/60/31 38/61/31
f 62/62/32 96/63/32 95/58/32
f 96/63/33 2/1/33 65/3/33
f 96/63/34 1/64/34 63/65/34
f 95/58/35 63/65/35 61/66/35
f 59/67/36 95/58/36 61/66/36
f 93/54/37 59/67/37 57/68/37
f 55/69/38 93/54/38 57/68/38
f 53/70/39 92/52/39 55/69/39
f 90/48/40 53/70/40 51/71/40
f 89/47/41 51/71/41 49/72/41
f 47/73/42 89/47/42 49/72/42
f 45/74/43 88/45/43 47/73/43
f 86/41/44 45/74/44 43/75/44
f 41/76/45 86/41/45 43/75/45
f 84/37/46 41/76/46 39/77/46
f 83/35/47 39/77/47 37/78/47
f 82/34/48 37/78/48 35/79/48
f 81/32/49 35/79/49 33/80/49
f 80/30/50 33/80/50 31/81/50
f 79/28/51 31/81/51 29/82/51
f 78/26/52 29/82/52 27/83/52
f 25/84/53 78/26/53 27/83/53
f 76/22/54 25/84/54 23/85/54
f 75/20/55 23/85/55 21/86/55
f 19/87/56 75/20/56 21/86/56
f 17/88/57 74/19/57 19/87/57
f 15/89/58 73/16/58 17/90/58
f 71/12/59 15/89/59 13/91/59
f 11/92/60 71/12/60 13/91/60
f 9/93/61 70/10/61 11/92/61
f 7/94/62 69/9/62 9/93/62
f 67/5/63 7/94/63 5/95/63
f 3/96/64 67/5/64 5/95/64
f 65/3/65 3/96/65 1/64/65
f 2/1/1 4/4/1 66/2/1
f 4/4/2 6/6/2 67/5/2
f 6/6/3 8/97/3 68/7/3
f 68/7/4 8/97/4 10/8/4
f 10/8/5 12/11/5 70/10/5
f 12/11/6 14/13/6 71/12/6
f 14/13/7 16/15/7 72/14/7
f 16/15/8 18/98/8 73/16/8
f 73/17/9 18/99/9 20/18/9
f 20/18/10 22/21/10 75/20/10
f 22/21/11 24/23/11 76/22/11
f 24/23/12 26/25/12 77/24/12
f 26/25/13 28/27/13 78/26/13
f 28/27/14 30/29/14 79/28/14
f 30/29/15 32/31/15 80/30/15
f 32/31/16 34/100/16 81/32/16
f 81/32/17 34/100/17 36/33/17
f 36/33/18 38/36/18 83/35/18
f 38/36/19 40/38/19 84/37/19
f 40/38/20 42/40/20 85/39/20
f 42/40/21 44/42/21 86/41/21
f 44/42/22 46/44/22 87/43/22
f 46/44/23 48/101/23 88/45/23
f 88/45/24 48/101/24 50/46/24
f 50/46/25 52/49/25 90/48/25
f 52/49/26 54/51/26 91/50/26
f 54/51/27 56/53/27 92/52/27
f 56/53/28 58/55/28 93/54/28
f 58/55/29 60/57/29 94/56/29
f 60/57/30 62/62/30 95/58/30
f 6/59/31 4/102/31 2/103/31
f 2/103/31 64/104/31 62/105/31
f 62/105/31 60/106/31 58/107/31
f 58/107/31 56/108/31 54/60/31
f 54/60/31 52/109/31 46/110/31
f 52/109/31 50/111/31 46/110/31
f 50/111/31 48/112/31 46/110/31
f 46/110/31 44/113/31 42/114/31
f 42/114/31 40/115/31 38/61/31
f 38/61/31 36/116/31 30/117/31
f 36/116/31 34/118/31 30/117/31
f 34/118/31 32/119/31 30/117/31
f 30/117/31 28/120/31 26/121/31
f 26/121/31 24/122/31 30/117/31
f 24/122/31 22/123/31 30/117/31
f 22/123/31 20/124/31 18/125/31
f 18/125/31 16/126/31 22/123/31
f 16/126/31 14/127/31 22/123/31
f 14/127/31 12/128/31 6/59/31
f 12/128/31 10/129/31 6/59/31
f 10/129/31 8/130/31 6/59/31
f 6/59/31 2/103/31 54/60/31
f 2/103/31 62/105/31 54/60/31
f 62/105/31 58/107/31 54/60/31
f 46/110/31 42/114/31 54/60/31
f 42/114/31 38/61/31 54/60/31
f 38/61/31 30/117/31 22/123/31
f 22/123/31 14/127/31 38/61/31
f 14/127/31 6/59/31 38/61/31
f 62/62/32 64/131/32 96/63/32
f 96/63/33 64/131/33 2/1/33
f 96/63/66 65/3/66 1/64/66
f 95/58/35 96/63/35 63/65/35
f 59/67/67 94/56/67 95/58/67
f 93/54/37 94/56/37 59/67/37
f 55/69/38 92/52/38 93/54/38
f 53/70/68 91/50/68 92/52/68
f 90/48/69 91/50/69 53/70/69
f 89/47/70 90/48/70 51/71/70
f 47/73/71 88/45/71 89/47/71
f 45/74/72 87/43/72 88/45/72
f 86/41/73 87/43/73 45/74/73
f 41/76/45 85/39/45 86/41/45
f 84/37/46 85/39/46 41/76/46
f 83/35/47 84/37/47 39/77/47
f 82/34/48 83/35/48 37/78/48
f 81/32/49 82/34/49 35/79/49
f 80/30/74 81/32/74 33/80/74
f 79/28/51 80/30/51 31/81/51
f 78/26/75 79/28/75 29/82/75
f 25/84/53 77/24/53 78/26/53
f 76/22/54 77/24/54 25/84/54
f 75/20/55 76/22/55 23/85/55
f 19/87/76 74/19/76 75/20/76
f 17/88/57 73/17/57 74/19/57
f 15/89/58 72/14/58 73/16/58
f 71/12/77 72/14/77 15/89/77
f 11/92/60 70/10/60 71/12/60
f 9/93/61 69/9/61 70/10/61
f 7/94/62 68/7/62 69/9/62
f 67/5/78 68/7/78 7/94/78
f 3/96/64 66/2/64 67/5/64
f 65/3/65 66/2/65 3/96/65
